<?xml version="1.0" encoding="UTF-8" standalone="no"?>
<!-- Created with Inkscape (http://www.inkscape.org/) -->

<svg
   xmlns:dc="http://purl.org/dc/elements/1.1/"
   xmlns:cc="http://creativecommons.org/ns#"
   xmlns:rdf="http://www.w3.org/1999/02/22-rdf-syntax-ns#"
   xmlns:svg="http://www.w3.org/2000/svg"
   xmlns="http://www.w3.org/2000/svg"
   xmlns:sodipodi="http://sodipodi.sourceforge.net/DTD/sodipodi-0.dtd"
   xmlns:inkscape="http://www.inkscape.org/namespaces/inkscape"
   width="744.09448819"
   height="1052.3622047"
   id="svg2"
   version="1.1"
   inkscape:version="0.48.2 r9819"
   sodipodi:docname="5p2p.svg">
  <defs
     id="defs4" />
  <sodipodi:namedview
     id="base"
     pagecolor="#ffffff"
     bordercolor="#666666"
     borderopacity="1.0"
     inkscape:pageopacity="0.0"
     inkscape:pageshadow="2"
     inkscape:zoom="4.5197152"
     inkscape:cx="295.24089"
     inkscape:cy="556.40848"
     inkscape:document-units="px"
     inkscape:current-layer="layer1"
     showgrid="false"
     inkscape:window-width="1382"
     inkscape:window-height="978"
     inkscape:window-x="4"
     inkscape:window-y="0"
     inkscape:window-maximized="0" />
  <metadata
     id="metadata7">
    <rdf:RDF>
      <cc:Work
         rdf:about="">
        <dc:format>image/svg+xml</dc:format>
        <dc:type
           rdf:resource="http://purl.org/dc/dcmitype/StillImage" />
        <dc:title></dc:title>
      </cc:Work>
    </rdf:RDF>
  </metadata>
  <g
     inkscape:label="Layer 1"
     inkscape:groupmode="layer"
     id="layer1">
    <path
       sodipodi:type="arc"
       style="opacity:0.9;fill:#00a2ff;fill-opacity:1"
       id="path2985"
       sodipodi:cx="212.54947"
       sodipodi:cy="299.78476"
       sodipodi:rx="92.081688"
       sodipodi:ry="81.004196"
       d="m 304.63116,299.78476 a 92.081688,81.004196 0 1 1 -184.16338,0 92.081688,81.004196 0 1 1 184.16338,0 z"
       transform="matrix(0.91305995,0,0,1.0379227,231.33107,-123.98492)" />
    <path
       transform="matrix(0.7886606,0,0,0.89651151,257.77209,-81.360904)"
       d="m 304.63116,299.78476 a 92.081688,81.004196 0 1 1 -184.16338,0 92.081688,81.004196 0 1 1 184.16338,0 z"
       sodipodi:ry="81.004196"
       sodipodi:rx="92.081688"
       sodipodi:cy="299.78476"
       sodipodi:cx="212.54947"
       id="path3821"
       style="fill:none;stroke:#ffffff;stroke-width:4.75704193;stroke-miterlimit:4;stroke-opacity:1;stroke-dasharray:none"
       sodipodi:type="arc" />
    <g
       id="g3869"
       style="fill:#00a2ff;fill-opacity:0.76442309;stroke:#004d7c;stroke-opacity:0.76470588"
       transform="matrix(0.75638903,0,0,0.43550811,532.61867,95.948231)">
      <path
         sodipodi:nodetypes="zzcczz"
         inkscape:connector-curvature="0"
         id="path3842"
         d="m 286.31578,378.15168 c 1.29991,-11.22045 -20.72748,-44.53797 -48.94737,-44.47368 -28.21989,0.0643 -67.10526,70.78947 -67.10526,70.78947 L 158.6842,346.04642 c 0,0 50.19653,62.44429 76.84211,64.21052 26.64558,1.76623 49.48956,-20.88481 50.78947,-32.10526 z"
         style="fill:#00a2ff;fill-opacity:0.76442309;stroke:#004d7c;stroke-width:4;stroke-linecap:butt;stroke-linejoin:round;stroke-miterlimit:4;stroke-opacity:0.76470588;stroke-dasharray:none" />
      <path
         sodipodi:nodetypes="cc"
         inkscape:connector-curvature="0"
         id="path3844"
         d="m 253.6842,358.678 c 6.53096,0.1299 12.06022,2.51363 15.78947,8.94737"
         style="fill:#00a2ff;fill-opacity:0.76442309;stroke:#004d7c;stroke-width:2;stroke-linecap:round;stroke-linejoin:round;stroke-miterlimit:4;stroke-opacity:0.76470588;stroke-dasharray:none" />
    </g>
    <g
       id="g3881"
       transform="translate(478.2546,-102.16644)"
       style="fill:#00a2ff;fill-opacity:0.76442309;stroke:#00588b;stroke-opacity:0.60096154">
      <path
         sodipodi:nodetypes="zzzzz"
         inkscape:connector-curvature="0"
         id="path3873"
         d="m 179.21052,293.678 c -2.46167,19.214 16.37839,38.11956 35.52631,40.52632 19.14792,2.40676 48.58252,-15.91821 51.05263,-35 2.47011,-19.08179 -15.85231,-38.00119 -35,-40.52632 -19.14769,-2.52513 -49.11727,15.786 -51.57894,35 z"
         style="fill:#00a2ff;fill-opacity:0.76442309;stroke:#00588b;stroke-width:4;stroke-linecap:butt;stroke-linejoin:miter;stroke-miterlimit:4;stroke-opacity:0.60096154;stroke-dasharray:none" />
      <path
         sodipodi:nodetypes="czc"
         inkscape:connector-curvature="0"
         id="path3875"
         d="m 213.94736,317.09905 c 0,0 -3.77487,-18.72666 -1.05263,-26.8421 2.72224,-8.11544 15.52631,-18.94737 15.52631,-18.94737"
         style="fill:#00a2ff;fill-opacity:0.76442309;stroke:#00588b;stroke-width:2;stroke-linecap:round;stroke-linejoin:round;stroke-miterlimit:4;stroke-opacity:0.60096154;stroke-dasharray:none" />
      <path
         sodipodi:nodetypes="czc"
         inkscape:connector-curvature="0"
         id="path3879"
         d="m 199.73683,286.57274 c 0,0 9.2713,-2.3826 15,-0.78947 5.7287,1.59313 17.10527,11.57894 17.10527,11.57894"
         style="fill:#00a2ff;fill-opacity:0.76442309;stroke:#00588b;stroke-width:1px;stroke-linecap:round;stroke-linejoin:round;stroke-opacity:0.60096154" />
    </g>
    <g
       transform="matrix(0.57971242,-0.48585787,0.27974367,0.33378255,217.2168,202.22151)"
       style="fill:#ffffff;fill-opacity:1;stroke:#00a2ff;stroke-opacity:0.90196078000000002;stroke-width:2.6134881;stroke-miterlimit:4;stroke-dasharray:none"
       id="g3898">
      <path
         style="fill:#ffffff;fill-opacity:1;stroke:#00a2ff;stroke-width:2.6134881;stroke-linecap:butt;stroke-linejoin:round;stroke-miterlimit:4;stroke-opacity:0.90196078000000002;stroke-dasharray:none"
         d="m 286.31578,378.15168 c 1.29991,-11.22045 -20.72748,-44.53797 -48.94737,-44.47368 -28.21989,0.0643 -67.10526,70.78947 -67.10526,70.78947 L 158.6842,346.04642 c 0,0 50.19653,62.44429 76.84211,64.21052 26.64558,1.76623 49.48956,-20.88481 50.78947,-32.10526 z"
         id="path3900"
         inkscape:connector-curvature="0"
         sodipodi:nodetypes="zzcczz" />
      <path
         style="fill:#ffffff;fill-opacity:1;stroke:#00a2ff;stroke-width:2.6134881;stroke-linecap:round;stroke-linejoin:round;stroke-miterlimit:4;stroke-opacity:0.90196078000000002;stroke-dasharray:none"
         d="m 253.6842,358.678 c 6.53096,0.1299 12.06022,2.51363 15.78947,8.94737"
         id="path3902"
         inkscape:connector-curvature="0"
         sodipodi:nodetypes="cc" />
    </g>
    <g
       style="fill:#ffffff;fill-opacity:1;stroke:#00a2ff;stroke-opacity:0.90196078000000002;stroke-width:1.5;stroke-miterlimit:4;stroke-dasharray:none"
       transform="matrix(0.99885223,0.04789799,-0.04789799,0.99885223,202.83737,-135.5501)"
       id="g3904">
      <path
         style="fill:#ffffff;fill-opacity:1;stroke:#00a2ff;stroke-width:1.5;stroke-linecap:butt;stroke-linejoin:miter;stroke-miterlimit:4;stroke-opacity:0.90196078000000002;stroke-dasharray:none"
         d="m 179.21052,293.678 c -2.46167,19.214 16.37839,38.11956 35.52631,40.52632 19.14792,2.40676 48.58252,-15.91821 51.05263,-35 2.47011,-19.08179 -15.85231,-38.00119 -35,-40.52632 -19.14769,-2.52513 -49.11727,15.786 -51.57894,35 z"
         id="path3906"
         inkscape:connector-curvature="0"
         sodipodi:nodetypes="zzzzz" />
      <path
         style="fill:#ffffff;fill-opacity:1;stroke:#00a2ff;stroke-width:1.5;stroke-linecap:round;stroke-linejoin:round;stroke-miterlimit:4;stroke-opacity:0.90196078000000002;stroke-dasharray:none"
         d="m 213.94736,317.09905 c 0,0 -3.77487,-18.72666 -1.05263,-26.8421 2.72224,-8.11544 15.52631,-18.94737 15.52631,-18.94737"
         id="path3908"
         inkscape:connector-curvature="0"
         sodipodi:nodetypes="czc" />
      <path
         style="fill:#ffffff;fill-opacity:1;stroke:#00a2ff;stroke-width:1.5;stroke-linecap:round;stroke-linejoin:round;stroke-opacity:0.90196078000000002;stroke-miterlimit:4;stroke-dasharray:none"
         d="m 199.73683,286.57274 c 0,0 9.2713,-2.3826 15,-0.78947 5.7287,1.59313 17.10527,11.57894 17.10527,11.57894"
         id="path3910"
         inkscape:connector-curvature="0"
         sodipodi:nodetypes="czc" />
    </g>
    <path
       transform="matrix(0.91305995,0,0,1.0379227,101.17048,184.8003)"
       d="m 304.63116,299.78476 a 92.081688,81.004196 0 1 1 -184.16338,0 92.081688,81.004196 0 1 1 184.16338,0 z"
       sodipodi:ry="81.004196"
       sodipodi:rx="92.081688"
       sodipodi:cy="299.78476"
       sodipodi:cx="212.54947"
       id="path3958"
       style="opacity:0.9;fill:#00a2ff;fill-opacity:1"
       sodipodi:type="arc" />
    <path
       sodipodi:type="arc"
       style="fill:none;stroke:#ffffff;stroke-width:4.75704193;stroke-miterlimit:4;stroke-opacity:1;stroke-dasharray:none"
       id="path3960"
       sodipodi:cx="212.54947"
       sodipodi:cy="299.78476"
       sodipodi:rx="92.081688"
       sodipodi:ry="81.004196"
       d="m 304.63116,299.78476 a 92.081688,81.004196 0 1 1 -184.16338,0 92.081688,81.004196 0 1 1 184.16338,0 z"
       transform="matrix(0.7886606,0,0,0.89651151,127.6115,227.42432)" />
    <g
       id="g3962"
       style="fill:#ffffff;fill-opacity:1;stroke:#00a2ff;stroke-width:3.01793299;stroke-miterlimit:4;stroke-opacity:0.90196078000000002;stroke-dasharray:none"
       transform="matrix(0.50093035,-0.42342508,0.24735777,0.28407197,121.2081,521.48598)">
      <path
         sodipodi:nodetypes="zzcczz"
         inkscape:connector-curvature="0"
         id="path3964"
         d="m 286.31578,378.15168 c 1.29991,-11.22045 -20.72748,-44.53797 -48.94737,-44.47368 -28.21989,0.0643 -67.10526,70.78947 -67.10526,70.78947 L 158.6842,346.04642 c 0,0 50.19653,62.44429 76.84211,64.21052 26.64558,1.76623 49.48956,-20.88481 50.78947,-32.10526 z"
         style="fill:#ffffff;fill-opacity:1;stroke:#00a2ff;stroke-width:3.01793299;stroke-linecap:butt;stroke-linejoin:round;stroke-miterlimit:4;stroke-opacity:0.90196078000000002;stroke-dasharray:none" />
      <path
         sodipodi:nodetypes="cc"
         inkscape:connector-curvature="0"
         id="path3966"
         d="m 253.6842,358.678 c 6.53096,0.1299 12.06022,2.51363 15.78947,8.94737"
         style="fill:#ffffff;fill-opacity:1;stroke:#00a2ff;stroke-width:3.01793299;stroke-linecap:round;stroke-linejoin:round;stroke-miterlimit:4;stroke-opacity:0.90196078000000002;stroke-dasharray:none" />
    </g>
    <g
       id="g3968"
       transform="matrix(0.55242854,0.02477141,-0.02649062,0.51657667,148.51533,309.1773)"
       style="fill:#ffffff;fill-opacity:1;stroke:#00a2ff;stroke-width:2.80470414;stroke-miterlimit:4;stroke-opacity:0.90196078000000002;stroke-dasharray:none">
      <path
         sodipodi:nodetypes="zzzzz"
         inkscape:connector-curvature="0"
         id="path3970"
         d="m 179.21052,293.678 c -2.46167,19.214 16.37839,38.11956 35.52631,40.52632 19.14792,2.40676 48.58252,-15.91821 51.05263,-35 2.47011,-19.08179 -15.85231,-38.00119 -35,-40.52632 -19.14769,-2.52513 -49.11727,15.786 -51.57894,35 z"
         style="fill:#ffffff;fill-opacity:1;stroke:#00a2ff;stroke-width:2.80470414;stroke-linecap:butt;stroke-linejoin:miter;stroke-miterlimit:4;stroke-opacity:0.90196078000000002;stroke-dasharray:none" />
      <path
         sodipodi:nodetypes="czc"
         inkscape:connector-curvature="0"
         id="path3972"
         d="m 213.94736,317.09905 c 0,0 -3.77487,-18.72666 -1.05263,-26.8421 2.72224,-8.11544 15.52631,-18.94737 15.52631,-18.94737"
         style="fill:#ffffff;fill-opacity:1;stroke:#00a2ff;stroke-width:2.80470414;stroke-linecap:round;stroke-linejoin:round;stroke-miterlimit:4;stroke-opacity:0.90196078000000002;stroke-dasharray:none" />
      <path
         sodipodi:nodetypes="czc"
         inkscape:connector-curvature="0"
         id="path3974"
         d="m 199.73683,286.57274 c 0,0 9.2713,-2.3826 15,-0.78947 5.7287,1.59313 17.10527,11.57894 17.10527,11.57894"
         style="fill:#ffffff;fill-opacity:1;stroke:#00a2ff;stroke-width:2.80470414;stroke-linecap:round;stroke-linejoin:round;stroke-miterlimit:4;stroke-opacity:0.90196078000000002;stroke-dasharray:none" />
    </g>
    <g
       transform="matrix(0.38085551,-0.53401226,0.30984636,0.21419148,112.36971,563.81538)"
       style="fill:#ffffff;fill-opacity:1;stroke:#00a2ff;stroke-width:3.01793296;stroke-miterlimit:4;stroke-opacity:0.90196078000000002;stroke-dasharray:none"
       id="g3976">
      <path
         style="fill:#ffffff;fill-opacity:1;stroke:#00a2ff;stroke-width:3.01793296;stroke-linecap:butt;stroke-linejoin:round;stroke-miterlimit:4;stroke-opacity:0.90196078000000002;stroke-dasharray:none"
         d="m 286.31578,378.15168 c 1.29991,-11.22045 -20.72748,-44.53797 -48.94737,-44.47368 -28.21989,0.0643 -67.10526,70.78947 -67.10526,70.78947 L 158.6842,346.04642 c 0,0 50.19653,62.44429 76.84211,64.21052 26.64558,1.76623 49.48956,-20.88481 50.78947,-32.10526 z"
         id="path3978"
         inkscape:connector-curvature="0"
         sodipodi:nodetypes="zzcczz" />
      <path
         style="fill:#ffffff;fill-opacity:1;stroke:#00a2ff;stroke-width:3.01793296;stroke-linecap:round;stroke-linejoin:round;stroke-miterlimit:4;stroke-opacity:0.90196078000000002;stroke-dasharray:none"
         d="m 253.6842,358.678 c 6.53096,0.1299 12.06022,2.51363 15.78947,8.94737"
         id="path3980"
         inkscape:connector-curvature="0"
         sodipodi:nodetypes="cc" />
    </g>
    <g
       style="fill:#ffffff;fill-opacity:1;stroke:#00a2ff;stroke-width:2.40695028;stroke-miterlimit:4;stroke-opacity:0.90196078000000002;stroke-dasharray:none"
       transform="matrix(0.5215793,0.27196053,-0.29874056,0.58883987,230.77489,278.19015)"
       id="g3982">
      <path
         style="fill:#ffffff;fill-opacity:1;stroke:#00a2ff;stroke-width:2.40695028;stroke-linecap:butt;stroke-linejoin:miter;stroke-miterlimit:4;stroke-opacity:0.90196078000000002;stroke-dasharray:none"
         d="m 179.21052,293.678 c -2.46167,19.214 16.37839,38.11956 35.52631,40.52632 19.14792,2.40676 48.58252,-15.91821 51.05263,-35 2.47011,-19.08179 -15.85231,-38.00119 -35,-40.52632 -19.14769,-2.52513 -49.11727,15.786 -51.57894,35 z"
         id="path3984"
         inkscape:connector-curvature="0"
         sodipodi:nodetypes="zzzzz" />
      <path
         style="fill:#ffffff;fill-opacity:1;stroke:#00a2ff;stroke-width:2.40695028;stroke-linecap:round;stroke-linejoin:round;stroke-miterlimit:4;stroke-opacity:0.90196078000000002;stroke-dasharray:none"
         d="m 213.94736,317.09905 c 0,0 -3.77487,-18.72666 -1.05263,-26.8421 2.72224,-8.11544 15.52631,-18.94737 15.52631,-18.94737"
         id="path3986"
         inkscape:connector-curvature="0"
         sodipodi:nodetypes="czc" />
      <path
         style="fill:#ffffff;fill-opacity:1;stroke:#00a2ff;stroke-width:2.40695028;stroke-linecap:round;stroke-linejoin:round;stroke-miterlimit:4;stroke-opacity:0.90196078000000002;stroke-dasharray:none"
         d="m 199.73683,286.57274 c 0,0 9.2713,-2.3826 15,-0.78947 5.7287,1.59313 17.10527,11.57894 17.10527,11.57894"
         id="path3988"
         inkscape:connector-curvature="0"
         sodipodi:nodetypes="czc" />
    </g>
    <g
       id="g3990"
       transform="matrix(0.58737279,0.02642188,-0.0281663,0.5509951,142.34305,298.82835)"
       style="fill:#ffffff;fill-opacity:1;stroke:#00a2ff;stroke-width:2.63367222;stroke-miterlimit:4;stroke-opacity:0.90196078000000002;stroke-dasharray:none">
      <path
         sodipodi:nodetypes="zzzzz"
         inkscape:connector-curvature="0"
         id="path3992"
         d="m 179.21052,293.678 c -2.46167,19.214 16.37839,38.11956 35.52631,40.52632 19.14792,2.40676 48.58252,-15.91821 51.05263,-35 2.47011,-19.08179 -15.85231,-38.00119 -35,-40.52632 -19.14769,-2.52513 -49.11727,15.786 -51.57894,35 z"
         style="fill:#ffffff;fill-opacity:1;stroke:#00a2ff;stroke-width:2.63367222;stroke-linecap:butt;stroke-linejoin:miter;stroke-miterlimit:4;stroke-opacity:0.90196078000000002;stroke-dasharray:none" />
      <path
         sodipodi:nodetypes="czc"
         inkscape:connector-curvature="0"
         id="path3994"
         d="m 213.94736,317.09905 c 0,0 -3.77487,-18.72666 -1.05263,-26.8421 2.72224,-8.11544 15.52631,-18.94737 15.52631,-18.94737"
         style="fill:#ffffff;fill-opacity:1;stroke:#00a2ff;stroke-width:2.63367222;stroke-linecap:round;stroke-linejoin:round;stroke-miterlimit:4;stroke-opacity:0.90196078000000002;stroke-dasharray:none" />
      <path
         sodipodi:nodetypes="czc"
         inkscape:connector-curvature="0"
         id="path3996"
         d="m 199.73683,286.57274 c 0,0 9.2713,-2.3826 15,-0.78947 5.7287,1.59313 17.10527,11.57894 17.10527,11.57894"
         style="fill:#ffffff;fill-opacity:1;stroke:#00a2ff;stroke-width:2.63367222;stroke-linecap:round;stroke-linejoin:round;stroke-miterlimit:4;stroke-opacity:0.90196078000000002;stroke-dasharray:none" />
    </g>
    <g
       style="fill:#ffffff;fill-opacity:1;stroke:#00a2ff;stroke-width:2.47372858;stroke-miterlimit:4;stroke-opacity:0.90196078000000002;stroke-dasharray:none"
       transform="matrix(0.66578373,0.02642188,-0.03192634,0.5509951,179.39838,298.82835)"
       id="g3998">
      <path
         style="fill:#ffffff;fill-opacity:1;stroke:#00a2ff;stroke-width:2.47372858;stroke-linecap:butt;stroke-linejoin:miter;stroke-miterlimit:4;stroke-opacity:0.90196078000000002;stroke-dasharray:none"
         d="m 179.21052,293.678 c -2.46167,19.214 16.37839,38.11956 35.52631,40.52632 19.14792,2.40676 48.58252,-15.91821 51.05263,-35 2.47011,-19.08179 -15.85231,-38.00119 -35,-40.52632 -19.14769,-2.52513 -49.11727,15.786 -51.57894,35 z"
         id="path4000"
         inkscape:connector-curvature="0"
         sodipodi:nodetypes="zzzzz" />
      <path
         style="fill:#ffffff;fill-opacity:1;stroke:#00a2ff;stroke-width:2.47372858;stroke-linecap:round;stroke-linejoin:round;stroke-miterlimit:4;stroke-opacity:0.90196078000000002;stroke-dasharray:none"
         d="m 213.94736,317.09905 c 0,0 -3.77487,-18.72666 -1.05263,-26.8421 2.72224,-8.11544 15.52631,-18.94737 15.52631,-18.94737"
         id="path4002"
         inkscape:connector-curvature="0"
         sodipodi:nodetypes="czc" />
      <path
         style="fill:#ffffff;fill-opacity:1;stroke:#00a2ff;stroke-width:2.47372858;stroke-linecap:round;stroke-linejoin:round;stroke-miterlimit:4;stroke-opacity:0.90196078000000002;stroke-dasharray:none"
         d="m 199.73683,286.57274 c 0,0 9.2713,-2.3826 15,-0.78947 5.7287,1.59313 17.10527,11.57894 17.10527,11.57894"
         id="path4004"
         inkscape:connector-curvature="0"
         sodipodi:nodetypes="czc" />
    </g>
    <g
       id="g4006"
       transform="matrix(0.65199963,0.03097526,-0.03126535,0.64595012,149.23718,293.45151)"
       style="fill:#ffffff;fill-opacity:1;stroke:#00a2ff;stroke-width:2.30870975;stroke-miterlimit:4;stroke-opacity:0.90196078000000002;stroke-dasharray:none">
      <path
         sodipodi:nodetypes="zzzzz"
         inkscape:connector-curvature="0"
         id="path4008"
         d="m 179.21052,293.678 c -2.46167,19.214 16.37839,38.11956 35.52631,40.52632 19.14792,2.40676 48.58252,-15.91821 51.05263,-35 2.47011,-19.08179 -15.85231,-38.00119 -35,-40.52632 -19.14769,-2.52513 -49.11727,15.786 -51.57894,35 z"
         style="fill:#ffffff;fill-opacity:1;stroke:#00a2ff;stroke-width:2.30870975;stroke-linecap:butt;stroke-linejoin:miter;stroke-miterlimit:4;stroke-opacity:0.90196078000000002;stroke-dasharray:none" />
      <path
         sodipodi:nodetypes="czc"
         inkscape:connector-curvature="0"
         id="path4010"
         d="m 213.94736,317.09905 c 0,0 -3.77487,-18.72666 -1.05263,-26.8421 2.72224,-8.11544 15.52631,-18.94737 15.52631,-18.94737"
         style="fill:#ffffff;fill-opacity:1;stroke:#00a2ff;stroke-width:2.30870975;stroke-linecap:round;stroke-linejoin:round;stroke-miterlimit:4;stroke-opacity:0.90196078000000002;stroke-dasharray:none" />
      <path
         sodipodi:nodetypes="czc"
         inkscape:connector-curvature="0"
         id="path4012"
         d="m 199.73683,286.57274 c 0,0 9.2713,-2.3826 15,-0.78947 5.7287,1.59313 17.10527,11.57894 17.10527,11.57894"
         style="fill:#ffffff;fill-opacity:1;stroke:#00a2ff;stroke-width:2.30870975;stroke-linecap:round;stroke-linejoin:round;stroke-miterlimit:4;stroke-opacity:0.90196078000000002;stroke-dasharray:none" />
    </g>
  </g>
</svg>
